<svg xmlns="http://www.w3.org/2000/svg" viewBox="0 0 992 332">
  <defs>
    <style>
      .cls-1 {
        fill: #fff;
      }
      .cls-2 {
        fill: #05c3de;
      }
    </style>
  </defs>
  <path class="cls-1"
        d="M386.79,63h2.12a.54.54,0,0,1,.61.61V95.39a.54.54,0,0,1-.61.61h-2.12a.54.54,0,0,1-.62-.61V81.12c0-.16-.07-.24-.23-.24H371a.21.21,0,0,0-.24.24V95.39a.54.54,0,0,1-.61.61H368a.54.54,0,0,1-.61-.61V63.64A.54.54,0,0,1,368,63h2.12a.54.54,0,0,1,.61.61V77.73A.21.21,0,0,0,371,78h14.93a.2.2,0,0,0,.23-.23V63.64A.54.54,0,0,1,386.79,63Z"/>
  <path class="cls-1"
        d="M404.4,95a9.57,9.57,0,0,1-3.93-3.84,11.43,11.43,0,0,1-1.39-5.72V73.58a11.43,11.43,0,0,1,1.39-5.72A9.57,9.57,0,0,1,404.4,64a13.39,13.39,0,0,1,11.8,0,9.64,9.64,0,0,1,4,3.84,11.53,11.53,0,0,1,1.38,5.72V85.45a11.53,11.53,0,0,1-1.38,5.72,9.64,9.64,0,0,1-4,3.84,13.39,13.39,0,0,1-11.8,0ZM416,91.34a7.76,7.76,0,0,0,2.17-5.75V73.53A7.84,7.84,0,0,0,416,67.76a8.56,8.56,0,0,0-11.44,0,7.84,7.84,0,0,0-2.17,5.77V85.59A8.1,8.1,0,0,0,416,91.34Z"/>
  <path class="cls-1"
        d="M435.53,95.13a9.41,9.41,0,0,1-3.88-3.67A10.67,10.67,0,0,1,430.26,86V73a10.41,10.41,0,0,1,1.39-5.42A9.43,9.43,0,0,1,435.53,64a12.37,12.37,0,0,1,5.8-1.3,12.69,12.69,0,0,1,5.79,1.27A9.55,9.55,0,0,1,451,67.5a10.21,10.21,0,0,1,1.39,5.33c0,.28-.21.45-.62.51l-2.12.15h-.14a.56.56,0,0,1-.33-.1c-.09-.06-.14-.12-.14-.19v-.28a7,7,0,0,0-2.12-5.34,8.79,8.79,0,0,0-11.21,0,7,7,0,0,0-2.12,5.32V86.11a7,7,0,0,0,2.12,5.32,8.8,8.8,0,0,0,11.21,0,7,7,0,0,0,2.12-5.35c0-.38.21-.55.61-.52l2.12.1c.41,0,.62.07.62.23v.24A10.37,10.37,0,0,1,451,91.55a9.46,9.46,0,0,1-3.89,3.6,13.76,13.76,0,0,1-11.59,0Z"/>
  <path class="cls-1"
        d="M481.13,63h2.12a.54.54,0,0,1,.61.61V95.39a.54.54,0,0,1-.61.61h-2.12a.54.54,0,0,1-.62-.61V81.12c0-.16-.07-.24-.23-.24H465.35a.21.21,0,0,0-.24.24V95.39a.54.54,0,0,1-.61.61h-2.12a.54.54,0,0,1-.61-.61V63.64a.54.54,0,0,1,.61-.61h2.12a.54.54,0,0,1,.61.61V77.73a.21.21,0,0,0,.24.23h14.93a.2.2,0,0,0,.23-.23V63.64A.54.54,0,0,1,481.13,63Z"/>
  <path class="cls-1"
        d="M498.06,95.29a8.9,8.9,0,0,1-4-3.08,8,8,0,0,1-1.39-4.64V86.25a.54.54,0,0,1,.61-.61h2a.54.54,0,0,1,.61.61v1.13a5.26,5.26,0,0,0,2.26,4.38,9.92,9.92,0,0,0,6.08,1.7,8.57,8.57,0,0,0,5.51-1.53,5,5,0,0,0,1.88-4.08,4.59,4.59,0,0,0-.87-2.82,8.58,8.58,0,0,0-2.66-2.22,43.5,43.5,0,0,0-5.13-2.4,55,55,0,0,1-5.49-2.47,9.44,9.44,0,0,1-3.16-2.73,7.06,7.06,0,0,1-1.2-4.22,7.4,7.4,0,0,1,2.76-6.15c1.84-1.46,4.37-2.19,7.61-2.19q5.18,0,8.19,2.45a8,8,0,0,1,3,6.5v.9a.54.54,0,0,1-.62.61h-2.07a.54.54,0,0,1-.61-.61v-.71a5.53,5.53,0,0,0-2.12-4.47,9.19,9.19,0,0,0-6-1.75,8.21,8.21,0,0,0-5.11,1.37,4.7,4.7,0,0,0-1.77,4,4.39,4.39,0,0,0,.87,2.8,7.35,7.35,0,0,0,2.5,1.93q1.62.83,5,2.14a47.25,47.25,0,0,1,5.56,2.64,10.75,10.75,0,0,1,3.39,3A7.23,7.23,0,0,1,515,87.71a7.74,7.74,0,0,1-2.9,6.29c-1.93,1.58-4.62,2.38-8.08,2.38A15.19,15.19,0,0,1,498.06,95.29Z"/>
  <path class="cls-1"
        d="M528.18,95.13a9.44,9.44,0,0,1-3.89-3.67A10.77,10.77,0,0,1,522.9,86V73a10.51,10.51,0,0,1,1.39-5.42A9.45,9.45,0,0,1,528.18,64a12.3,12.3,0,0,1,5.79-1.3,12.74,12.74,0,0,1,5.8,1.27,9.52,9.52,0,0,1,3.88,3.58A10.11,10.11,0,0,1,545,72.83c0,.28-.2.45-.61.51l-2.12.15h-.14a.52.52,0,0,1-.33-.1c-.1-.06-.14-.12-.14-.19v-.28a7,7,0,0,0-2.12-5.34,8.79,8.79,0,0,0-11.21,0,7,7,0,0,0-2.12,5.32V86.11a7,7,0,0,0,2.12,5.32,7.77,7.77,0,0,0,5.6,2,7.86,7.86,0,0,0,5.61-2,7,7,0,0,0,2.12-5.35c0-.38.2-.55.61-.52l2.12.1c.41,0,.61.07.61.23v.24a10.28,10.28,0,0,1-1.39,5.39,9.44,9.44,0,0,1-3.88,3.6,12.61,12.61,0,0,1-5.8,1.27A12.42,12.42,0,0,1,528.18,95.13Z"/>
  <path class="cls-1"
        d="M573.77,63h2.12a.54.54,0,0,1,.61.61V95.39a.54.54,0,0,1-.61.61h-2.12a.54.54,0,0,1-.61-.61V81.12a.21.21,0,0,0-.24-.24H558a.21.21,0,0,0-.23.24V95.39a.54.54,0,0,1-.61.61H555a.54.54,0,0,1-.62-.61V63.64A.54.54,0,0,1,555,63h2.12a.54.54,0,0,1,.61.61V77.73A.21.21,0,0,0,558,78h14.93a.21.21,0,0,0,.24-.23V63.64A.54.54,0,0,1,573.77,63Z"/>
  <path class="cls-1"
        d="M592.09,95.06a9.66,9.66,0,0,1-4-3.7,10.54,10.54,0,0,1-1.42-5.53V63.64a.54.54,0,0,1,.62-.61h2.11a.54.54,0,0,1,.62.61V85.92a7.25,7.25,0,0,0,2.16,5.44,8.79,8.79,0,0,0,11.4,0,7.22,7.22,0,0,0,2.17-5.44V63.64a.54.54,0,0,1,.61-.61h2.12a.54.54,0,0,1,.61.61V85.83a10.71,10.71,0,0,1-1.39,5.53,9.43,9.43,0,0,1-3.93,3.7,13.69,13.69,0,0,1-11.73,0Z"/>
  <path class="cls-1"
        d="M619.51,95.39V63.64a.54.54,0,0,1,.61-.61h2.12a.54.54,0,0,1,.61.61v29.2a.21.21,0,0,0,.23.24h16.44a.54.54,0,0,1,.61.61v1.7a.54.54,0,0,1-.61.61h-19.4A.54.54,0,0,1,619.51,95.39Z"/>
  <path class="cls-1"
        d="M668.87,66H651.72a.21.21,0,0,0-.24.24V77.73a.21.21,0,0,0,.24.23h12a.55.55,0,0,1,.62.61v1.7a.54.54,0,0,1-.62.61h-12a.21.21,0,0,0-.24.24V92.84a.21.21,0,0,0,.24.24h17.15a.54.54,0,0,1,.61.61v1.7a.54.54,0,0,1-.61.61H648.75a.54.54,0,0,1-.61-.61V63.64a.54.54,0,0,1,.61-.61h20.12a.54.54,0,0,1,.61.61v1.7A.54.54,0,0,1,668.87,66Z"/>
  <path class="cls-1"
        d="M383.21,152.39l-5.8-12.81a.33.33,0,0,0-.33-.24H372.8a.25.25,0,0,0-.28.28V152.2a.71.71,0,0,1-.81.8h-5a.71.71,0,0,1-.8-.8V120.78a.71.71,0,0,1,.8-.8h13.24a10.9,10.9,0,0,1,5.3,1.25,8.71,8.71,0,0,1,3.53,3.51,10.56,10.56,0,0,1,1.25,5.18,9.47,9.47,0,0,1-1.6,5.51,8.52,8.52,0,0,1-4.43,3.25.29.29,0,0,0-.19.17.19.19,0,0,0,.05.21l6.22,13a.71.71,0,0,1,.14.42.47.47,0,0,1-.19.38.89.89,0,0,1-.52.14h-5.32A1,1,0,0,1,383.21,152.39ZM372.52,126v7.91c0,.19.09.29.28.29h6.12a4.59,4.59,0,0,0,3.23-1.16,3.94,3.94,0,0,0,1.25-3,4.11,4.11,0,0,0-1.25-3.09,4.48,4.48,0,0,0-3.23-1.2H372.8A.24.24,0,0,0,372.52,126Z"/>
  <path class="cls-1"
        d="M417.68,152.34,416.36,148a.26.26,0,0,0-.28-.24H404.54a.26.26,0,0,0-.28.24l-1.32,4.38a.88.88,0,0,1-.89.66h-5.47a.72.72,0,0,1-.61-.26.63.63,0,0,1-.05-.63l10-31.42a.88.88,0,0,1,.89-.66h6.92a.9.9,0,0,1,.9.66l10,31.42a.63.63,0,0,1,.05.28.52.52,0,0,1-.19.44.73.73,0,0,1-.52.17h-5.46A.9.9,0,0,1,417.68,152.34Zm-11.54-9.75h8.34q.28,0,.24-.33l-4.24-14.36c0-.13-.09-.19-.17-.19s-.15.06-.21.19l-4.19,14.36C405.88,142.48,406,142.59,406.14,142.59Z"/>
  <path class="cls-1"
        d="M433.41,152.34l-9.56-31.42a.66.66,0,0,1,0-.28c0-.41.23-.61.7-.61H430a.88.88,0,0,1,.89.66l6.17,22.7c0,.13.1.19.19.19s.16-.06.19-.19l6.07-22.65a.91.91,0,0,1,.9-.71h5.32a.71.71,0,0,1,.61.26.63.63,0,0,1,.05.63l-9.7,31.42a.9.9,0,0,1-.9.66h-5.46A.9.9,0,0,1,433.41,152.34Z"/>
  <path class="cls-1"
        d="M478.3,125.73H463.13a.25.25,0,0,0-.28.28v7.21a.25.25,0,0,0,.28.28H473a.71.71,0,0,1,.8.8v4.1a.71.71,0,0,1-.8.8h-9.85a.25.25,0,0,0-.28.28V147a.25.25,0,0,0,.28.28H478.3a.71.71,0,0,1,.8.8v4.1a.71.71,0,0,1-.8.8H457a.71.71,0,0,1-.8-.8V120.83a.71.71,0,0,1,.8-.8H478.3a.71.71,0,0,1,.8.8v4.1A.71.71,0,0,1,478.3,125.73Z"/>
  <path class="cls-1"
        d="M485.6,152.2V120.83a.71.71,0,0,1,.8-.8h4.85a1,1,0,0,1,.94.52L504,140.14c.06.13.13.17.21.14s.12-.11.12-.23V120.83a.71.71,0,0,1,.8-.8h4.95a.71.71,0,0,1,.8.8V152.2a.71.71,0,0,1-.8.8h-4.81a1.1,1.1,0,0,1-.94-.57l-11.82-19.78c-.07-.12-.14-.17-.21-.14s-.12.11-.12.24l0,19.45a.71.71,0,0,1-.8.8h-5A.71.71,0,0,1,485.6,152.2Z"/>
  <path class="cls-1"
        d="M523.19,152.15a9.69,9.69,0,0,1-4.29-3.44,9,9,0,0,1-1.51-5.18v-.8a.71.71,0,0,1,.8-.8h4.95c.53,0,.8.21.8.61v.66a3.85,3.85,0,0,0,1.72,3.18,7.24,7.24,0,0,0,4.5,1.3,5.49,5.49,0,0,0,3.69-1.06,3.37,3.37,0,0,0,1.21-2.62,2.63,2.63,0,0,0-.76-1.9,6.68,6.68,0,0,0-2-1.37c-.85-.39-2.22-.93-4.1-1.62a37.93,37.93,0,0,1-5.37-2.22,10.9,10.9,0,0,1-3.67-3.08,7.67,7.67,0,0,1-1.51-4.83,8.47,8.47,0,0,1,1.46-4.95,9.33,9.33,0,0,1,4.07-3.25,15,15,0,0,1,6-1.13,15.6,15.6,0,0,1,6.41,1.27,10.43,10.43,0,0,1,4.4,3.56,9.11,9.11,0,0,1,1.58,5.3v.47a.71.71,0,0,1-.8.8h-5c-.53,0-.8-.16-.8-.47v-.47a4.29,4.29,0,0,0-1.62-3.37,6.68,6.68,0,0,0-4.45-1.39,5.68,5.68,0,0,0-3.49.94,3.09,3.09,0,0,0-1.22,2.59,2.87,2.87,0,0,0,.7,2,6.34,6.34,0,0,0,2.14,1.46q1.44.66,4.46,1.7c2.19.82,3.94,1.53,5.22,2.14a10,10,0,0,1,3.47,2.8,7.48,7.48,0,0,1,1.53,4.86,8.73,8.73,0,0,1-1.49,5A9.5,9.5,0,0,1,536,152.2a16,16,0,0,1-6.38,1.18A15.79,15.79,0,0,1,523.19,152.15Z"/>
  <path class="cls-1"
        d="M567.7,135.93a.25.25,0,0,0,.14.21q4.42,2.21,4.43,7.63a8.1,8.1,0,0,1-3.11,6.9A13.28,13.28,0,0,1,561,153H549a.71.71,0,0,1-.8-.8V120.83a.71.71,0,0,1,.8-.8h11.59q11.16,0,11.16,9a6.82,6.82,0,0,1-3.95,6.69A.17.17,0,0,0,567.7,135.93ZM554.89,126v7.25c0,.19.09.29.28.29h5.46a5.18,5.18,0,0,0,3.44-1,3.48,3.48,0,0,0,1.22-2.82,3.62,3.62,0,0,0-1.22-2.9,5.08,5.08,0,0,0-3.44-1.06h-5.46A.24.24,0,0,0,554.89,126Zm9.51,20.14a4.4,4.4,0,0,0,0-6.08A4.94,4.94,0,0,0,561,139h-5.79c-.19,0-.28.1-.28.29V147a.24.24,0,0,0,.28.28H561A4.92,4.92,0,0,0,564.4,146.15Z"/>
  <path class="cls-1"
        d="M584.91,152a10.38,10.38,0,0,1-4.29-4,11.31,11.31,0,0,1-1.53-5.91V120.83a.71.71,0,0,1,.81-.8h5a.71.71,0,0,1,.8.8v21.29a5.56,5.56,0,1,0,11.12,0V120.83a.71.71,0,0,1,.8-.8h5a.71.71,0,0,1,.8.8v21.24A11.31,11.31,0,0,1,602,148a10.35,10.35,0,0,1-4.28,4,15.07,15.07,0,0,1-12.77,0Z"/>
  <path class="cls-1"
        d="M628.17,152.39l-5.79-12.81a.33.33,0,0,0-.33-.24h-4.29a.25.25,0,0,0-.28.28V152.2a.71.71,0,0,1-.8.8h-5a.71.71,0,0,1-.8-.8V120.78a.71.71,0,0,1,.8-.8h13.24a10.88,10.88,0,0,1,5.29,1.25,8.67,8.67,0,0,1,3.54,3.51,10.56,10.56,0,0,1,1.25,5.18,9.4,9.4,0,0,1-1.61,5.51,8.46,8.46,0,0,1-4.42,3.25.27.27,0,0,0-.19.17.17.17,0,0,0,0,.21l6.21,13a.65.65,0,0,1,.14.42.46.46,0,0,1-.18.38.89.89,0,0,1-.52.14h-5.33A1,1,0,0,1,628.17,152.39ZM617.48,126v7.91c0,.19.09.29.28.29h6.13a4.54,4.54,0,0,0,3.22-1.16,3.94,3.94,0,0,0,1.25-3,4.11,4.11,0,0,0-1.25-3.09,4.44,4.44,0,0,0-3.22-1.2h-6.13A.24.24,0,0,0,617.48,126Z"/>
  <path class="cls-1"
        d="M646.82,151.92a10.67,10.67,0,0,1-4.31-4.08,11.75,11.75,0,0,1-1.53-6.05V131.24a11.91,11.91,0,0,1,1.53-6.08,10.45,10.45,0,0,1,4.31-4.07,13.76,13.76,0,0,1,6.41-1.44,13.54,13.54,0,0,1,6.33,1.42,10.68,10.68,0,0,1,4.29,3.84,9.87,9.87,0,0,1,1.53,5.39v.09a.71.71,0,0,1-.8.8h-5a1.35,1.35,0,0,1-.59-.11c-.14-.08-.21-.17-.21-.26v-.33a4.9,4.9,0,0,0-1.51-3.65,6.09,6.09,0,0,0-8.08.09,5.67,5.67,0,0,0-1.53,4.12V142a5.45,5.45,0,0,0,1.65,4.12,5.83,5.83,0,0,0,4.19,1.58,5.63,5.63,0,0,0,3.91-1.3,4.53,4.53,0,0,0,1.46-3.6v-2.07c0-.19-.09-.29-.28-.29h-5a.7.7,0,0,1-.8-.8v-3.86a.71.71,0,0,1,.8-.8h11a.71.71,0,0,1,.8.8v6a12.27,12.27,0,0,1-1.51,6.22,9.93,9.93,0,0,1-4.26,4,14.07,14.07,0,0,1-6.38,1.39A13.64,13.64,0,0,1,646.82,151.92Z"/>
  <path class="cls-1"
        d="M670.56,141.13V137a.71.71,0,0,1,.8-.8h14.93a.71.71,0,0,1,.8.8v4.1a.7.7,0,0,1-.8.8H671.36A.71.71,0,0,1,670.56,141.13Z"/>
  <path class="cls-1"
        d="M699.53,152.29l-8.29-31.37a.52.52,0,0,1,0-.23c0-.44.25-.66.76-.66h5.36a.78.78,0,0,1,.85.71l4.43,18.79c0,.13.09.19.19.19s.16-.06.19-.19l4.24-18.79a.78.78,0,0,1,.84-.71h5.33a.81.81,0,0,1,.89.71l4.62,18.79c0,.13.08.19.16.19s.14-.06.17-.19l4.24-18.79a.78.78,0,0,1,.84-.71h5.14a.65.65,0,0,1,.59.26.83.83,0,0,1,.07.63l-7.59,31.37a.81.81,0,0,1-.89.71h-5.18a.83.83,0,0,1-.9-.71l-4.71-20c0-.13-.09-.19-.19-.19s-.15.06-.18.19l-4.38,20a.8.8,0,0,1-.85.71h-4.81A.81.81,0,0,1,699.53,152.29Z"/>
  <path class="cls-1"
        d="M757.55,125.73H742.39a.24.24,0,0,0-.28.28v7.21a.24.24,0,0,0,.28.28h9.84a.71.71,0,0,1,.8.8v4.1a.71.71,0,0,1-.8.8h-9.84a.24.24,0,0,0-.28.28V147a.24.24,0,0,0,.28.28h15.16a.71.71,0,0,1,.81.8v4.1a.71.71,0,0,1-.81.8H736.27a.71.71,0,0,1-.81-.8V120.83a.71.71,0,0,1,.81-.8h21.28a.71.71,0,0,1,.81.8v4.1A.71.71,0,0,1,757.55,125.73Z"/>
  <path class="cls-1"
        d="M764.86,152.2V120.83a.71.71,0,0,1,.8-.8h5a.71.71,0,0,1,.8.8V152.2a.71.71,0,0,1-.8.8h-5A.71.71,0,0,1,764.86,152.2Z"/>
  <path class="cls-1"
        d="M779.13,152.2V120.83a.71.71,0,0,1,.8-.8h4.85a1,1,0,0,1,.94.52l11.78,19.59c.06.13.13.17.21.14s.12-.11.12-.23V120.83a.71.71,0,0,1,.8-.8h4.94a.71.71,0,0,1,.8.8V152.2a.71.71,0,0,1-.8.8h-4.8a1.1,1.1,0,0,1-.94-.57L786,132.65c-.06-.12-.13-.17-.21-.14s-.12.11-.12.24l.05,19.45a.71.71,0,0,1-.8.8h-5A.71.71,0,0,1,779.13,152.2Z"/>
  <path class="cls-1"
        d="M817.18,151.92a10.67,10.67,0,0,1-4.31-4.08,11.75,11.75,0,0,1-1.53-6.05V131.24a11.91,11.91,0,0,1,1.53-6.08,10.45,10.45,0,0,1,4.31-4.07,13.76,13.76,0,0,1,6.41-1.44,13.57,13.57,0,0,1,6.33,1.42,10.68,10.68,0,0,1,4.29,3.84,9.87,9.87,0,0,1,1.53,5.39v.09a.71.71,0,0,1-.8.8h-5a1.35,1.35,0,0,1-.59-.11c-.14-.08-.21-.17-.21-.26v-.33a4.9,4.9,0,0,0-1.51-3.65,6.09,6.09,0,0,0-8.08.09,5.67,5.67,0,0,0-1.53,4.12V142a5.45,5.45,0,0,0,1.65,4.12,5.83,5.83,0,0,0,4.19,1.58,5.63,5.63,0,0,0,3.91-1.3,4.53,4.53,0,0,0,1.46-3.6v-2.07c0-.19-.09-.29-.28-.29h-5a.7.7,0,0,1-.8-.8v-3.86a.71.71,0,0,1,.8-.8h11a.71.71,0,0,1,.8.8v6a12.27,12.27,0,0,1-1.51,6.22,9.93,9.93,0,0,1-4.26,4,14.07,14.07,0,0,1-6.38,1.39A13.64,13.64,0,0,1,817.18,151.92Z"/>
  <path class="cls-1"
        d="M862,152.34,860.7,148a.26.26,0,0,0-.28-.24H848.88a.26.26,0,0,0-.28.24l-1.32,4.38a.9.9,0,0,1-.9.66h-5.46a.71.71,0,0,1-.61-.26.63.63,0,0,1,0-.63l10-31.42a.9.9,0,0,1,.9-.66h6.92a.9.9,0,0,1,.9.66l10,31.42a.63.63,0,0,1,.05.28.55.55,0,0,1-.19.44.73.73,0,0,1-.52.17h-5.46A.9.9,0,0,1,862,152.34Zm-11.54-9.75h8.34c.19,0,.27-.11.23-.33l-4.23-14.36c0-.13-.09-.19-.17-.19s-.15.06-.21.19l-4.19,14.36C850.21,142.48,850.29,142.59,850.48,142.59Z"/>
  <path class="cls-1"
        d="M892.54,152.39l-5.79-12.81a.33.33,0,0,0-.33-.24h-4.29a.25.25,0,0,0-.28.28V152.2a.71.71,0,0,1-.8.8h-5a.71.71,0,0,1-.8-.8V120.78a.71.71,0,0,1,.8-.8h13.24a10.88,10.88,0,0,1,5.29,1.25,8.73,8.73,0,0,1,3.54,3.51,10.56,10.56,0,0,1,1.24,5.18,9.4,9.4,0,0,1-1.6,5.51,8.46,8.46,0,0,1-4.42,3.25.27.27,0,0,0-.19.17.19.19,0,0,0,0,.21l6.22,13a.65.65,0,0,1,.14.42.45.45,0,0,1-.19.38.84.84,0,0,1-.51.14h-5.33A1,1,0,0,1,892.54,152.39ZM881.85,126v7.91a.26.26,0,0,0,.28.29h6.13a4.56,4.56,0,0,0,3.22-1.16,3.94,3.94,0,0,0,1.25-3,4.11,4.11,0,0,0-1.25-3.09,4.46,4.46,0,0,0-3.22-1.2h-6.13A.25.25,0,0,0,881.85,126Z"/>
  <path class="cls-1"
        d="M929.28,120.83V125a.71.71,0,0,1-.8.8h-8.15a.24.24,0,0,0-.28.28V152.2a.71.71,0,0,1-.8.8h-5a.71.71,0,0,1-.8-.8V126.06a.25.25,0,0,0-.28-.28h-7.92a.71.71,0,0,1-.8-.8v-4.15a.71.71,0,0,1,.8-.8h23.27A.71.71,0,0,1,929.28,120.83Z"/>
  <path class="cls-1"
        d="M957.49,125.73H942.33c-.19,0-.29.09-.29.28v7.21c0,.19.1.28.29.28h9.84a.71.71,0,0,1,.8.8v4.1a.71.71,0,0,1-.8.8h-9.84c-.19,0-.29.09-.29.28V147c0,.19.1.28.29.28h15.16a.71.71,0,0,1,.8.8v4.1a.71.71,0,0,1-.8.8H936.2a.71.71,0,0,1-.8-.8V120.83a.71.71,0,0,1,.8-.8h21.29a.71.71,0,0,1,.8.8v4.1A.71.71,0,0,1,957.49,125.73Z"/>
  <path class="cls-1"
        d="M964.79,152.2V120.83a.71.71,0,0,1,.8-.8h4.86a1.05,1.05,0,0,1,.94.52l11.77,19.59c.06.13.13.17.22.14s.11-.11.11-.23V120.83a.71.71,0,0,1,.8-.8h5a.71.71,0,0,1,.8.8V152.2a.71.71,0,0,1-.8.8h-4.81a1.11,1.11,0,0,1-.94-.57l-11.82-19.78c-.06-.12-.13-.17-.21-.14s-.12.11-.12.24l0,19.45a.71.71,0,0,1-.8.8h-5A.71.71,0,0,1,964.79,152.2Z"/>
  <path class="cls-2"
        d="M371.45,209a10.35,10.35,0,0,1-4.28-4,11.31,11.31,0,0,1-1.53-5.91V177.83a.71.71,0,0,1,.8-.8h5a.71.71,0,0,1,.8.8v21.29a5.56,5.56,0,1,0,11.12,0V177.83a.71.71,0,0,1,.8-.8h5a.71.71,0,0,1,.81.8v21.24a11.41,11.41,0,0,1-1.53,5.91,10.38,10.38,0,0,1-4.29,4,15.07,15.07,0,0,1-12.77,0Z"/>
  <path class="cls-2"
        d="M397.38,209.2V177.83a.71.71,0,0,1,.8-.8H403a1.05,1.05,0,0,1,.94.52l11.77,19.59c.06.13.14.17.21.14s.12-.11.12-.23V177.83a.71.71,0,0,1,.8-.8h4.95a.71.71,0,0,1,.8.8V209.2a.71.71,0,0,1-.8.8H417a1.11,1.11,0,0,1-.94-.57l-11.82-19.78c-.06-.12-.13-.17-.21-.14s-.12.11-.12.24L404,209.2a.71.71,0,0,1-.8.8h-5A.71.71,0,0,1,397.38,209.2Z"/>
  <path class="cls-2"
        d="M430.26,209.2V177.83a.71.71,0,0,1,.8-.8h5a.71.71,0,0,1,.8.8V209.2a.71.71,0,0,1-.8.8h-5A.71.71,0,0,1,430.26,209.2Z"/>
  <path class="cls-2"
        d="M452.63,209.34l-9.56-31.42a.63.63,0,0,1-.05-.28c0-.41.24-.61.71-.61h5.46a.9.9,0,0,1,.9.66l6.17,22.7c0,.13.09.19.18.19s.16-.06.19-.19l6.08-22.65a.9.9,0,0,1,.89-.71h5.33a.72.72,0,0,1,.61.26.65.65,0,0,1,0,.63l-9.71,31.42a.88.88,0,0,1-.89.66h-5.47A.88.88,0,0,1,452.63,209.34Z"/>
  <path class="cls-2"
        d="M497.52,182.73H482.35a.24.24,0,0,0-.28.28v7.21a.24.24,0,0,0,.28.28h9.84a.71.71,0,0,1,.8.8v4.1a.71.71,0,0,1-.8.8h-9.84a.24.24,0,0,0-.28.28V204a.24.24,0,0,0,.28.28h15.17a.71.71,0,0,1,.8.8v4.1a.71.71,0,0,1-.8.8H476.23a.71.71,0,0,1-.8-.8V177.83a.71.71,0,0,1,.8-.8h21.29a.71.71,0,0,1,.8.8v4.1A.71.71,0,0,1,497.52,182.73Z"/>
  <path class="cls-2"
        d="M522.15,209.39l-5.79-12.81a.35.35,0,0,0-.33-.24h-4.29a.25.25,0,0,0-.28.28V209.2a.71.71,0,0,1-.8.8h-5a.71.71,0,0,1-.8-.8V177.78a.71.71,0,0,1,.8-.8h13.23a10.9,10.9,0,0,1,5.3,1.25,8.71,8.71,0,0,1,3.53,3.51,10.45,10.45,0,0,1,1.25,5.18,9.4,9.4,0,0,1-1.6,5.51,8.48,8.48,0,0,1-4.43,3.25.28.28,0,0,0-.18.17.17.17,0,0,0,0,.21l6.22,13a.71.71,0,0,1,.14.42.45.45,0,0,1-.19.38.87.87,0,0,1-.52.14h-5.32A1,1,0,0,1,522.15,209.39ZM511.46,183v7.91c0,.19.09.29.28.29h6.12a4.57,4.57,0,0,0,3.23-1.16,3.94,3.94,0,0,0,1.25-3,4.11,4.11,0,0,0-1.25-3.09,4.47,4.47,0,0,0-3.23-1.2h-6.12A.24.24,0,0,0,511.46,183Z"/>
  <path class="cls-2"
        d="M540.33,209.15a9.8,9.8,0,0,1-4.29-3.44,9,9,0,0,1-1.5-5.18v-.8a.71.71,0,0,1,.8-.8h4.94c.54,0,.8.21.8.61v.66a3.87,3.87,0,0,0,1.72,3.18,7.26,7.26,0,0,0,4.5,1.3,5.5,5.5,0,0,0,3.7-1.06,3.36,3.36,0,0,0,1.2-2.62,2.62,2.62,0,0,0-.75-1.9,6.74,6.74,0,0,0-2-1.37c-.85-.39-2.21-.93-4.1-1.62a39,39,0,0,1-5.37-2.22,11,11,0,0,1-3.67-3.08,7.67,7.67,0,0,1-1.51-4.83,8.54,8.54,0,0,1,1.46-4.95,9.36,9.36,0,0,1,4.08-3.25,14.94,14.94,0,0,1,6-1.13,15.56,15.56,0,0,1,6.4,1.27,10.36,10.36,0,0,1,4.4,3.56,9,9,0,0,1,1.58,5.3v.47a.7.7,0,0,1-.8.8h-4.94c-.54,0-.8-.16-.8-.47v-.47a4.3,4.3,0,0,0-1.63-3.37,6.66,6.66,0,0,0-4.45-1.39,5.68,5.68,0,0,0-3.49.94,3.11,3.11,0,0,0-1.22,2.59,2.88,2.88,0,0,0,.71,2,6.24,6.24,0,0,0,2.14,1.46q1.44.66,4.45,1.7,3.3,1.23,5.23,2.14a10,10,0,0,1,3.46,2.8,7.48,7.48,0,0,1,1.53,4.86,8.72,8.72,0,0,1-1.48,5,9.56,9.56,0,0,1-4.19,3.34,16.05,16.05,0,0,1-6.39,1.18A15.79,15.79,0,0,1,540.33,209.15Z"/>
  <path class="cls-2"
        d="M565.39,209.2V177.83a.71.71,0,0,1,.8-.8h5a.71.71,0,0,1,.8.8V209.2a.71.71,0,0,1-.8.8h-5A.71.71,0,0,1,565.39,209.2Z"/>
  <path class="cls-2"
        d="M603,177.83V182a.71.71,0,0,1-.8.8H594a.24.24,0,0,0-.28.28V209.2a.71.71,0,0,1-.8.8h-5a.71.71,0,0,1-.8-.8V183.06a.24.24,0,0,0-.28-.28H578.9a.71.71,0,0,1-.8-.8v-4.15a.71.71,0,0,1,.8-.8h23.27A.71.71,0,0,1,603,177.83Z"/>
  <path class="cls-2"
        d="M617.43,209.15V197.52l-.09-.38L607.82,178a.87.87,0,0,1-.14-.42.45.45,0,0,1,.19-.38.89.89,0,0,1,.52-.14h5.46a1,1,0,0,1,.94.61l5.75,12.25a.26.26,0,0,0,.21.14c.08,0,.13-.05.17-.14l5.74-12.25a1,1,0,0,1,1-.61h5.51c.47,0,.7.19.7.56a.69.69,0,0,1-.09.38l-9.61,19.17-.09.38v11.63a.71.71,0,0,1-.81.8h-5A.71.71,0,0,1,617.43,209.15Z"/>
  <path class="cls-2"
        d="M371.71,266a9.69,9.69,0,0,1-3.93-3.84,11.43,11.43,0,0,1-1.39-5.72V244.58a11.43,11.43,0,0,1,1.39-5.72,9.69,9.69,0,0,1,3.93-3.84,13.39,13.39,0,0,1,11.8,0,9.64,9.64,0,0,1,4,3.84,11.43,11.43,0,0,1,1.39,5.72v11.87a11.43,11.43,0,0,1-1.39,5.72,9.64,9.64,0,0,1-4,3.84,13.39,13.39,0,0,1-11.8,0Zm11.64-3.67a7.79,7.79,0,0,0,2.16-5.75V244.53a7.87,7.87,0,0,0-2.16-5.77,8.58,8.58,0,0,0-11.45,0,7.87,7.87,0,0,0-2.16,5.77v12.06a8.1,8.1,0,0,0,13.61,5.75Z"/>
  <path class="cls-2"
        d="M419.28,237H402.19a.21.21,0,0,0-.24.24v11.54a.21.21,0,0,0,.24.23H414.1a.55.55,0,0,1,.62.61v1.7a.54.54,0,0,1-.62.61H402.19a.21.21,0,0,0-.24.24v14.27a.54.54,0,0,1-.61.61h-2.12a.54.54,0,0,1-.61-.61V234.64a.54.54,0,0,1,.61-.61h20.06a.54.54,0,0,1,.62.61v1.7A.54.54,0,0,1,419.28,237Z"/>
  <path class="cls-2"
        d="M457.53,266.48l-1.88-5.74c-.07-.13-.15-.19-.24-.19h-14c-.09,0-.17.06-.23.19l-1.84,5.74a.62.62,0,0,1-.66.52h-2.26a.53.53,0,0,1-.47-.19.59.59,0,0,1-.05-.52l10.37-31.74a.62.62,0,0,1,.65-.52h3a.63.63,0,0,1,.66.52L461,266.29a.57.57,0,0,1,0,.24.43.43,0,0,1-.17.33.61.61,0,0,1-.4.14h-2.26A.62.62,0,0,1,457.53,266.48Zm-15.17-8.66h12.11c.19,0,.25-.1.19-.29l-6.13-19.26c0-.13-.08-.19-.14-.19s-.11.06-.14.19l-6.08,19.26C442.14,257.72,442.21,257.82,442.36,257.82Z"/>
  <path class="cls-2"
        d="M488.22,236.53a9.1,9.1,0,0,1,2.51,6.68,8.79,8.79,0,0,1-2.56,6.6,9.3,9.3,0,0,1-6.76,2.49h-9.14c-.16,0-.23.08-.23.24v13.85a.54.54,0,0,1-.62.61H469.3a.54.54,0,0,1-.61-.61v-31.8a.54.54,0,0,1,.61-.61h12.25A9,9,0,0,1,488.22,236.53Zm-2.53,11.28a6.08,6.08,0,0,0,1.75-4.55,6.2,6.2,0,0,0-1.75-4.61,6.07,6.07,0,0,0-4.52-1.75h-8.9c-.16,0-.23.08-.23.24v12.15c0,.16.07.24.23.24h8.9A6.17,6.17,0,0,0,485.69,247.81Z"/>
  <path class="cls-2"
        d="M518,236.53a9.07,9.07,0,0,1,2.52,6.68,8.76,8.76,0,0,1-2.57,6.6,9.28,9.28,0,0,1-6.75,2.49H502a.21.21,0,0,0-.24.24v13.85a.54.54,0,0,1-.61.61h-2.12a.54.54,0,0,1-.61-.61v-31.8a.54.54,0,0,1,.61-.61h12.25A9,9,0,0,1,518,236.53Zm-2.52,11.28a6.11,6.11,0,0,0,1.74-4.55,6.24,6.24,0,0,0-1.74-4.61,6.09,6.09,0,0,0-4.52-1.75H502a.21.21,0,0,0-.24.24v12.15a.21.21,0,0,0,.24.24h8.9A6.19,6.19,0,0,0,515.46,247.81Z"/>
  <path class="cls-2"
        d="M528.56,266.39V234.64a.54.54,0,0,1,.61-.61h2.12a.54.54,0,0,1,.61.61v29.2a.21.21,0,0,0,.24.24h16.43a.54.54,0,0,1,.62.61v1.7a.54.54,0,0,1-.62.61h-19.4A.54.54,0,0,1,528.56,266.39Z"/>
  <path class="cls-2"
        d="M557.19,266.39V234.64a.54.54,0,0,1,.61-.61h2.12a.54.54,0,0,1,.62.61v31.75a.54.54,0,0,1-.62.61H557.8A.54.54,0,0,1,557.19,266.39Z"/>
  <path class="cls-2"
        d="M592,237H574.85a.21.21,0,0,0-.23.24v11.54a.21.21,0,0,0,.23.23h12a.54.54,0,0,1,.61.61v1.7a.54.54,0,0,1-.61.61h-12a.21.21,0,0,0-.23.24v11.72a.21.21,0,0,0,.23.24H592a.54.54,0,0,1,.61.61v1.7a.54.54,0,0,1-.61.61H571.89a.54.54,0,0,1-.62-.61V234.64a.54.54,0,0,1,.62-.61H592a.54.54,0,0,1,.61.61v1.7A.54.54,0,0,1,592,237Z"/>
  <path class="cls-2"
        d="M601.65,266.39V234.64a.54.54,0,0,1,.62-.61h11a10.78,10.78,0,0,1,7.42,2.45,8.42,8.42,0,0,1,2.75,6.64v14.79a8.41,8.41,0,0,1-2.75,6.64,10.78,10.78,0,0,1-7.42,2.45h-11A.54.54,0,0,1,601.65,266.39Zm3.58-2.31h8.15a6.67,6.67,0,0,0,4.88-1.79,6.46,6.46,0,0,0,1.81-4.8v-13.9a6.56,6.56,0,0,0-1.79-4.85,6.63,6.63,0,0,0-4.9-1.79h-8.15a.21.21,0,0,0-.23.24v26.65A.21.21,0,0,0,605.23,264.08Z"/>
  <path class="cls-2"
        d="M647.55,266.29a8.82,8.82,0,0,1-3.95-3.08,7.92,7.92,0,0,1-1.39-4.64v-1.32a.54.54,0,0,1,.61-.61h2a.54.54,0,0,1,.62.61v1.13a5.23,5.23,0,0,0,2.26,4.38,9.87,9.87,0,0,0,6.07,1.7,8.56,8.56,0,0,0,5.51-1.53,5,5,0,0,0,1.89-4.08,4.59,4.59,0,0,0-.87-2.82,8.7,8.7,0,0,0-2.66-2.22,44.58,44.58,0,0,0-5.14-2.4,55.69,55.69,0,0,1-5.48-2.47,9.25,9.25,0,0,1-3.16-2.73,7.06,7.06,0,0,1-1.2-4.22,7.42,7.42,0,0,1,2.75-6.15c1.84-1.46,4.37-2.19,7.61-2.19q5.18,0,8.19,2.45a8,8,0,0,1,3,6.5v.9a.54.54,0,0,1-.61.61h-2.08a.54.54,0,0,1-.61-.61v-.71a5.5,5.5,0,0,0-2.12-4.47,9.17,9.17,0,0,0-6-1.75,8.23,8.23,0,0,0-5.11,1.37,4.7,4.7,0,0,0-1.77,4,4.34,4.34,0,0,0,.88,2.8,7.3,7.3,0,0,0,2.49,1.93c1.09.55,2.74,1.26,5,2.14a46.49,46.49,0,0,1,5.56,2.64,10.75,10.75,0,0,1,3.39,3,7.16,7.16,0,0,1,1.27,4.31,7.72,7.72,0,0,1-2.9,6.29c-1.92,1.58-4.62,2.38-8.07,2.38A15.24,15.24,0,0,1,647.55,266.29Z"/>
  <path class="cls-2"
        d="M677.67,266.13a9.41,9.41,0,0,1-3.88-3.67A10.67,10.67,0,0,1,672.4,257V244a10.41,10.41,0,0,1,1.39-5.42,9.43,9.43,0,0,1,3.88-3.65,12.37,12.37,0,0,1,5.8-1.3,12.72,12.72,0,0,1,5.79,1.27,9.46,9.46,0,0,1,3.88,3.58,10.12,10.12,0,0,1,1.4,5.33c0,.28-.21.45-.62.51l-2.12.15h-.14a.56.56,0,0,1-.33-.1c-.09-.06-.14-.12-.14-.19v-.28a7,7,0,0,0-2.12-5.34,8.79,8.79,0,0,0-11.21,0,7,7,0,0,0-2.12,5.32v13.19a7,7,0,0,0,2.12,5.32,8.8,8.8,0,0,0,11.21,0,7,7,0,0,0,2.12-5.35c0-.38.2-.55.61-.52l2.12.1c.41,0,.62.07.62.23v.24a10.28,10.28,0,0,1-1.4,5.39,9.38,9.38,0,0,1-3.88,3.6,13.76,13.76,0,0,1-11.59,0Z"/>
  <path class="cls-2"
        d="M703.91,266.39V234.64a.54.54,0,0,1,.61-.61h2.12a.54.54,0,0,1,.61.61v31.75a.54.54,0,0,1-.61.61h-2.12A.54.54,0,0,1,703.91,266.39Z"/>
  <path class="cls-2"
        d="M738.71,237H721.57a.21.21,0,0,0-.24.24v11.54a.21.21,0,0,0,.24.23h12a.54.54,0,0,1,.61.61v1.7a.54.54,0,0,1-.61.61h-12a.21.21,0,0,0-.24.24v11.72a.21.21,0,0,0,.24.24h17.14a.54.54,0,0,1,.62.61v1.7a.54.54,0,0,1-.62.61H718.6a.54.54,0,0,1-.61-.61V234.64a.54.54,0,0,1,.61-.61h20.11a.54.54,0,0,1,.62.61v1.7A.54.54,0,0,1,738.71,237Z"/>
  <path class="cls-2"
        d="M748.37,266.39V234.64A.54.54,0,0,1,749,234h2.12a.84.84,0,0,1,.71.42l15.82,25.63c.07.09.13.13.19.11s.09-.08.09-.21V234.64a.54.54,0,0,1,.62-.61h2.12a.54.54,0,0,1,.61.61v31.75a.54.54,0,0,1-.61.61h-2.12a.83.83,0,0,1-.71-.42L752,240.86c-.07-.09-.13-.13-.19-.12s-.09.09-.09.21l0,25.44a.54.54,0,0,1-.61.61H749A.54.54,0,0,1,748.37,266.39Z"/>
  <path class="cls-2"
        d="M786.19,266.13a9.5,9.5,0,0,1-3.89-3.67,10.77,10.77,0,0,1-1.39-5.49V244a10.51,10.51,0,0,1,1.39-5.42,9.51,9.51,0,0,1,3.89-3.65,12.32,12.32,0,0,1,5.79-1.3,12.74,12.74,0,0,1,5.8,1.27,9.52,9.52,0,0,1,3.88,3.58,10.11,10.11,0,0,1,1.39,5.33c0,.28-.2.45-.61.51l-2.12.15h-.14a.52.52,0,0,1-.33-.1c-.1-.06-.14-.12-.14-.19v-.28a7,7,0,0,0-2.12-5.34,8.79,8.79,0,0,0-11.21,0,7,7,0,0,0-2.12,5.32v13.19a7,7,0,0,0,2.12,5.32,7.77,7.77,0,0,0,5.6,2,7.86,7.86,0,0,0,5.61-2,7,7,0,0,0,2.12-5.35c0-.38.2-.55.61-.52l2.12.1c.41,0,.61.07.61.23v.24a10.28,10.28,0,0,1-1.39,5.39,9.44,9.44,0,0,1-3.88,3.6,12.61,12.61,0,0,1-5.8,1.27A12.44,12.44,0,0,1,786.19,266.13Z"/>
  <path class="cls-2"
        d="M833.15,237H816a.21.21,0,0,0-.23.24v11.54a.21.21,0,0,0,.23.23h12a.54.54,0,0,1,.61.61v1.7a.54.54,0,0,1-.61.61H816a.21.21,0,0,0-.23.24v11.72a.21.21,0,0,0,.23.24h17.15a.54.54,0,0,1,.61.61v1.7a.54.54,0,0,1-.61.61H813a.54.54,0,0,1-.62-.61V234.64A.54.54,0,0,1,813,234h20.11a.54.54,0,0,1,.61.61v1.7A.54.54,0,0,1,833.15,237Z"/>
  <path class="cls-2"
        d="M846.41,266.29a8.85,8.85,0,0,1-4-3.08,7.92,7.92,0,0,1-1.39-4.64v-1.32a.54.54,0,0,1,.61-.61h2a.54.54,0,0,1,.61.61v1.13a5.23,5.23,0,0,0,2.26,4.38,9.9,9.9,0,0,0,6.08,1.7,8.59,8.59,0,0,0,5.51-1.53,5,5,0,0,0,1.88-4.08,4.59,4.59,0,0,0-.87-2.82,8.58,8.58,0,0,0-2.66-2.22,45.11,45.11,0,0,0-5.13-2.4,55,55,0,0,1-5.49-2.47,9.25,9.25,0,0,1-3.16-2.73,7.06,7.06,0,0,1-1.2-4.22,7.4,7.4,0,0,1,2.76-6.15c1.83-1.46,4.37-2.19,7.6-2.19q5.19,0,8.2,2.45a8,8,0,0,1,3,6.5v.9a.54.54,0,0,1-.61.61h-2.07a.54.54,0,0,1-.61-.61v-.71a5.53,5.53,0,0,0-2.12-4.47,9.2,9.2,0,0,0-6-1.75,8.24,8.24,0,0,0-5.12,1.37,4.72,4.72,0,0,0-1.76,4,4.39,4.39,0,0,0,.87,2.8,7.25,7.25,0,0,0,2.5,1.93c1.08.55,2.74,1.26,5,2.14a45.75,45.75,0,0,1,5.56,2.64,10.64,10.64,0,0,1,3.39,3,7.16,7.16,0,0,1,1.27,4.31,7.74,7.74,0,0,1-2.89,6.29c-1.93,1.58-4.62,2.38-8.08,2.38A15.19,15.19,0,0,1,846.41,266.29Z"/>
  <path class="cls-1"
        d="M82.5,150,59.21,96.27A2,2,0,0,0,57.05,95H49.28a1.52,1.52,0,0,0-1.72,1.73v52.2q0,4.09-4.1,4.1H11.1Q7,153,7,148.9V6.1Q7,2,11.1,2H75.6q14.67,0,25.78,6A43.07,43.07,0,0,1,118.64,25q6.14,10.91,6.14,25.14,0,14-6.79,24.59A41.07,41.07,0,0,1,99.11,90.44a1.46,1.46,0,0,0-.86,2.16l26.32,55.65a4.81,4.81,0,0,1,.43,2.16q0,2.59-3.45,2.59H87.25A4.74,4.74,0,0,1,82.5,150ZM47.56,38.46V62.4a1.52,1.52,0,0,0,1.72,1.73H68.91c4.61,0,8.34-1.26,11.22-3.78a12.41,12.41,0,0,0,4.32-9.81,12.65,12.65,0,0,0-4.32-10c-2.88-2.52-6.61-3.78-11.22-3.78H49.28A1.52,1.52,0,0,0,47.56,38.46Z"/>
  <path class="cls-1"
        d="M180.37,149.55l-42.28-143A4.86,4.86,0,0,1,137.87,5c0-2,1.23-3,3.67-3h34.94A4.2,4.2,0,0,1,181,5.45L198.7,73.62c.29.72.68,1.08,1.19,1.08s.83-.36,1-1.08l16.4-67.95Q218.33,2,221.78,2H247a4.2,4.2,0,0,1,4.53,3.45l17.26,68.17c.29.72.68,1.08,1.19,1.08s.82-.36,1-1.08l16-67.95A4.25,4.25,0,0,1,291.46,2h35a3.51,3.51,0,0,1,3,1.19,4.2,4.2,0,0,1,.43,3.34l-37.75,143a4.21,4.21,0,0,1-4.53,3.45h-33q-3.88,0-4.53-3.67l-14.88-71.4c-.29-.72-.65-1.11-1.08-1.19s-.72.33-.86,1.19l-13.16,71.4a4,4,0,0,1-4.31,3.67H185.11A4.53,4.53,0,0,1,180.37,149.55Z"/>
  <path class="cls-2"
        d="M205.54,323.3a48.83,48.83,0,0,1-20.85-19q-7.35-12.31-7.35-28.52V181.11q0-4.11,4.1-4.11h32.42q4.09,0,4.1,4.11v94.65q0,8.87,5.08,14.15t13.51,5.3q8.2,0,13.29-5.41t5.08-14V181.11c0-2.74,1.36-4.11,4.1-4.11h32.42q4.1,0,4.1,4.11v94.65q0,16.2-7.34,28.52a49.09,49.09,0,0,1-20.75,19q-13.4,6.7-30.9,6.7T205.54,323.3Z"/>
  <path class="cls-2"
        d="M143,185a9,9,0,0,0-9,9v7.74a2,2,0,0,1-1.14,1.8l-20.45,9.78A32.35,32.35,0,0,0,105,207a7,7,0,0,0,7-7v-3H96a5,5,0,1,1,3.54-8.54l2.51,2.49h0a7,7,0,0,0,5.46,2,7.17,7.17,0,0,0,6.49-7.24V178a1,1,0,0,0-1-1H84a29.37,29.37,0,0,0-10.92,2.13,5,5,0,0,0-8.92,1.62,4.94,4.94,0,0,0,.62,3.91c-4,4.2-6.51,10.23-5.78,18.34,1.33,14.83,10.08,25.42,12,35a22.11,22.11,0,0,1-4,18,30.39,30.39,0,0,1-13.79,9.79A20,20,0,0,1,40,247V213h0A19,19,0,1,0,7.56,226.73a4,4,0,0,0,5.56.1,4.16,4.16,0,0,0,0-5.88,10.94,10.94,0,0,1-3.06-8.71,11,11,0,0,1,22,1V247a28,28,0,0,0,17,25.75c-.06,6.69-.66,16.5-4.13,20.5A18.46,18.46,0,0,1,36,299l16.43,30a2,2,0,0,0,1.75,1H77a1,1,0,0,0,1-1v-2a9,9,0,0,0-9-9H63.18a2,2,0,0,1-1.75-1L57,309s7.31-1.12,12-5,6-11,6-11,10,5.25,10.31,10.25A6.29,6.29,0,0,1,82,309l19.41,20.38a2,2,0,0,0,1.45.62H124a1,1,0,0,0,1-1v-2a9,9,0,0,0-9-9h-8a2,2,0,0,1-1.63-.84L102,311s6-6,6-14c0-7-12-22-12-22a92.6,92.6,0,0,0,14-13.73l5,6.73,29.77-12.49a2,2,0,0,0,1.23-1.84V232a1,1,0,0,0-1-1h-2a9,9,0,0,0-9,9v4a1,1,0,0,1-1,1H119.43a28.45,28.45,0,0,0,1.57-9c0-.33,0-.65,0-1l24.43-24.43a2,2,0,0,0,.59-1.42V186a1,1,0,0,0-1-1Z"/>
</svg>
